<svg width="24" height="24" viewBox="0 0 24 24" fill="none" xmlns="http://www.w3.org/2000/svg">
<path d="M20.6239 16.9436C20.4169 17.753 19.8069 18.3905 19.0325 18.6069C17.6288 19 12 19 12 19C12 19 6.37127 19 4.96752 18.6069C4.19308 18.3905 3.58314 17.753 3.37613 16.9436C3 15.4764 3 12.4152 3 12.4152C3 12.4152 3 9.35406 3.37613 7.88687C3.58314 7.07741 4.19308 6.46646 4.96752 6.25011C6.37127 5.85699 12 5.85699 12 5.85699C12 5.85699 17.6287 5.85699 19.0325 6.25011C19.8069 6.46646 20.4169 7.07741 20.6239 7.88687C21 9.35406 21 12.4152 21 12.4152C21 12.4152 21 15.4764 20.6239 16.9436ZM10.1591 9.63591V15.1945L14.8636 12.4151L10.1591 9.63591Z" fill="#FAFAFF"/>
</svg>
